<svg id="Capa_1" data-name="Capa 1" xmlns="http://www.w3.org/2000/svg" viewBox="0 0 378.6 70.77"><defs><style>.cls-1{font-size:72px;font-family:Cyber-BoldBook, Cyber;font-weight:700;}.cls-1,.cls-3{fill:#03031c;}.cls-2{letter-spacing:-0.06em;}</style></defs><text class="cls-1" transform="translate(91.11 61.2)"><tspan class="cls-2">O</tspan><tspan x="59.47" y="0">TECH</tspan></text><path class="cls-3" d="M736.42,597.34H678.54a6,6,0,0,0-6,6v30.9a6,6,0,0,0,6,6h57.88a6,6,0,0,0,6-6v-30.9A6,6,0,0,0,736.42,597.34Zm3.29,34.25a6,6,0,0,1-6,6H681.52a6,6,0,0,1-6-6V606a6,6,0,0,1,6-6h52.19a6,6,0,0,1,6,6Z" transform="translate(-672.54 -587)"/><polygon class="cls-3" points="36.71 59.55 36.71 53.24 35.66 53.24 32.73 53.24 31.68 53.24 31.68 59.55 26.82 62.12 32.73 62.12 35.66 62.12 41.58 62.12 36.71 59.55"/></svg>